# xmcd CD database file
#
# Track frame offsets:
#	150
#	14906
#	27275
#	43975
#	56925
#	65403
#	77108
#	87214
#	100590
#	112581
#	125904
#	136451
#
# Disc length: 1975 seconds
#
# Revision: 0
# Processed by: cddbd v1.5.2PL0 Copyright (c) Steve Scherf et al.
# Submitted via: CDex 1.70beta3
#
DISCID=a707b50c
DTITLE=Joe Fender - Joe Fender
DYEAR=1974
DGENRE=Jazz
TTITLE0=Relax And Listen
TTITLE1=Nice 'n Easy
TTITLE2=Roses And Rainbows
TTITLE3=Vaya
TTITLE4=Talk, Talk, Talk
TTITLE5=Sweet Lies
TTITLE6=Todo Bien
TTITLE7=Sauntering
TTITLE8=Abrassado
TTITLE9=Walking Hand In Hand
TTITLE10=Bits And Pieces
TTITLE11=Feeling Warm And Wonderful
EXTD=YEAR: 1974
EXTT0=
EXTT1=
EXTT2=
EXTT3=
EXTT4=
EXTT5=
EXTT6=
EXTT7=
EXTT8=
EXTT9=
EXTT10=
EXTT11=
PLAYORDER=
